<svg width="16" height="16" viewBox="0 0 16 16" fill="none" xmlns="http://www.w3.org/2000/svg">
<path d="M8.02399 15.0833C6.0564 15.0833 4.38396 14.3947 3.00665 13.0173C1.62933 11.64 0.940674 9.9676 0.940674 8.00002C0.940674 6.11435 1.58036 4.49711 2.85974 3.14829C4.1391 1.79947 5.70559 1.06897 7.55922 0.956787C7.67887 0.956787 7.79638 0.961058 7.91176 0.969599C8.02713 0.978141 8.14038 0.990961 8.25149 1.00806C7.82628 1.40549 7.48761 1.88572 7.23549 2.44875C6.98335 3.01179 6.85728 3.61221 6.85728 4.25002C6.85728 5.61577 7.33529 6.77666 8.29132 7.73268C9.24735 8.6887 10.4082 9.1667 11.774 9.1667C12.4203 9.1667 13.0229 9.04064 13.5817 8.78852C14.1404 8.53639 14.6158 8.19772 15.0079 7.77252C15.025 7.88363 15.0378 7.99687 15.0464 8.11225C15.0549 8.22762 15.0592 8.34513 15.0592 8.46479C14.9524 10.3184 14.2245 11.8849 12.8757 13.1643C11.5269 14.4436 9.90965 15.0833 8.02399 15.0833ZM8.02399 13.8334C9.24621 13.8334 10.3434 13.4965 11.3157 12.8229C12.2879 12.1493 12.9962 11.2709 13.4407 10.1875C13.1629 10.257 12.8851 10.3125 12.6073 10.3542C12.3295 10.3959 12.0518 10.4167 11.774 10.4167C10.0657 10.4167 8.61079 9.81599 7.4094 8.6146C6.20801 7.41321 5.60732 5.95835 5.60732 4.25002C5.60732 3.97224 5.62815 3.69446 5.66982 3.41668C5.71149 3.13891 5.76704 2.86113 5.83649 2.58335C4.75315 3.02779 3.87468 3.73613 3.20107 4.70835C2.52746 5.68057 2.19065 6.77779 2.19065 8.00002C2.19065 9.61113 2.7601 10.9861 3.89899 12.125C5.03788 13.2639 6.41288 13.8334 8.02399 13.8334Z" fill="#161616"/>
</svg>
