<svg width="18" height="18" viewBox="0 0 18 18" fill="none" xmlns="http://www.w3.org/2000/svg">
<path d="M6.50006 8.99999C6.50006 9.69443 6.74312 10.2847 7.22923 10.7708C7.71534 11.2569 8.30562 11.5 9.00006 11.5C9.69451 11.5 10.2848 11.2569 10.7709 10.7708C11.257 10.2847 11.5001 9.69443 11.5001 8.99999C11.5001 8.30554 11.257 7.71527 10.7709 7.22916C10.2848 6.74304 9.69451 6.49999 9.00006 6.49999C8.30562 6.49999 7.71534 6.74304 7.22923 7.22916C6.74312 7.71527 6.50006 8.30554 6.50006 8.99999ZM5.25008 8.99999C5.25008 7.95941 5.61493 7.07426 6.34462 6.34455C7.07433 5.61486 7.95948 5.25001 9.00006 5.25001C10.0406 5.25001 10.9258 5.61486 11.6555 6.34455C12.3852 7.07426 12.75 7.95941 12.75 8.99999C12.75 10.0406 12.3852 10.9257 11.6555 11.6554C10.9258 12.3851 10.0406 12.75 9.00006 12.75C7.95948 12.75 7.07433 12.3851 6.34462 11.6554C5.61493 10.9257 5.25008 10.0406 5.25008 8.99999ZM8.37508 0.666656C8.37508 0.489573 8.435 0.341142 8.55483 0.221364C8.67468 0.101559 8.82318 0.0416561 9.00033 0.0416561C9.1775 0.0416561 9.32591 0.101552 9.44556 0.221344C9.56521 0.341121 9.62504 0.489552 9.62504 0.666635L9.62504 2.54166C9.62504 2.71873 9.56512 2.86716 9.44529 2.98695C9.32544 3.10675 9.17694 3.16666 8.99979 3.16666C8.82262 3.16666 8.67421 3.10676 8.55456 2.98697C8.43491 2.86718 8.37508 2.71875 8.37508 2.54168L8.37508 0.666656ZM8.37508 15.4583C8.37508 15.2812 8.435 15.1328 8.55483 15.013C8.67468 14.8932 8.82318 14.8333 9.00033 14.8333C9.1775 14.8333 9.32591 14.8932 9.44556 15.013C9.56521 15.1328 9.62504 15.2812 9.62504 15.4583L9.62504 17.3333C9.62504 17.5104 9.56512 17.6588 9.44529 17.7786C9.32544 17.8984 9.17694 17.9583 8.99979 17.9583C8.82262 17.9583 8.67421 17.8984 8.55456 17.7786C8.43491 17.6588 8.37508 17.5104 8.37508 17.3333L8.37508 15.4583ZM14.8334 8.99972C14.8334 8.82255 14.8933 8.67414 15.0131 8.55449C15.1329 8.43484 15.2813 8.37501 15.4584 8.37501L17.3334 8.37501C17.5105 8.37501 17.6589 8.43493 17.7787 8.55476C17.8985 8.67461 17.9584 8.82311 17.9584 9.00026C17.9584 9.17743 17.8985 9.32584 17.7787 9.44549C17.6589 9.56514 17.5105 9.62497 17.3334 9.62497L15.4584 9.62497C15.2813 9.62497 15.1329 9.56505 15.0131 9.44522C14.8933 9.32537 14.8334 9.17687 14.8334 8.99972ZM0.0417286 8.99972C0.0417286 8.82255 0.101631 8.67414 0.221437 8.55449C0.341215 8.43484 0.489645 8.37501 0.666729 8.37501L2.54175 8.37501C2.71882 8.37501 2.86725 8.43493 2.98704 8.55476C3.10683 8.67461 3.16673 8.82311 3.16673 9.00026C3.16673 9.17743 3.10683 9.32584 2.98704 9.44549C2.86725 9.56514 2.71882 9.62497 2.54175 9.62497L0.666729 9.62497C0.489645 9.62497 0.341215 9.56505 0.221437 9.44522C0.101631 9.32537 0.0417286 9.17687 0.0417286 8.99972ZM13.1331 4.00482L14.1523 2.95674C14.2677 2.83281 14.4127 2.77298 14.5874 2.77724C14.7621 2.78152 14.9141 2.84216 15.0433 2.95918C15.1726 3.08682 15.2372 3.23664 15.2372 3.40864C15.2372 3.58065 15.1726 3.72702 15.0433 3.84774L14.0032 4.87499C13.874 4.99571 13.7276 5.05607 13.5641 5.05607C13.4007 5.05607 13.2543 4.99704 13.1251 4.87899C12.9958 4.76095 12.9346 4.61806 12.9416 4.45032C12.9485 4.28259 13.0124 4.13409 13.1331 4.00482ZM2.95683 14.1522L3.99687 13.125C4.12615 13.0043 4.27465 12.9439 4.44237 12.9439C4.61011 12.9439 4.75434 13.0043 4.87506 13.125C5.00433 13.2377 5.06549 13.3786 5.05854 13.5477C5.0516 13.7167 4.98776 13.8659 4.86704 13.9952L3.84781 15.0432C3.73242 15.1672 3.58739 15.227 3.41273 15.2227C3.23805 15.2185 3.08608 15.1578 2.95681 15.0408C2.82753 14.9132 2.76289 14.7633 2.76289 14.5913C2.76289 14.4193 2.82755 14.273 2.95683 14.1522ZM13.1211 13.125C13.2391 12.9957 13.382 12.9346 13.5497 12.9415C13.7175 12.9485 13.866 13.0123 13.9952 13.133L15.0433 14.1522C15.1672 14.2676 15.2271 14.4127 15.2228 14.5873C15.2185 14.762 15.1579 14.914 15.0409 15.0432C14.9132 15.1725 14.7634 15.2372 14.5914 15.2372C14.4194 15.2372 14.273 15.1725 14.1523 15.0432L13.1251 14.0032C13.0043 13.8739 12.944 13.7275 12.944 13.5641C12.944 13.4006 13.003 13.2543 13.1211 13.125ZM2.95506 2.95674C3.08549 2.82746 3.23671 2.76282 3.40871 2.76282C3.58072 2.76282 3.72709 2.82746 3.84781 2.95674L4.87506 3.9968C4.99578 4.12608 5.05615 4.27458 5.05615 4.4423C5.05615 4.61004 4.99578 4.75427 4.87506 4.87499C4.76235 4.99892 4.62147 5.05741 4.4524 5.05047C4.28333 5.04352 4.13416 4.98236 4.00489 4.86697L2.95681 3.84774C2.82753 3.72702 2.76503 3.58065 2.76931 3.40863C2.77358 3.23664 2.83549 3.086 2.95506 2.95674Z" fill="#080731"/>
</svg>
